<svg width="23" height="22" viewBox="0 0 23 22" fill="none" xmlns="http://www.w3.org/2000/svg">
<path fill-rule="evenodd" clip-rule="evenodd" d="M22.6884 11.1412C22.6884 5.27079 17.7418 0.510864 11.6413 0.510864C5.54071 0.510864 0.594177 5.27079 0.594177 11.1412C0.594177 16.4469 4.63327 20.8447 9.91516 21.6429V14.215H7.1095V11.1412H9.91516V8.79921C9.91516 6.13545 11.5648 4.66287 14.0879 4.66287C15.2967 4.66287 16.5612 4.87073 16.5612 4.87073V7.48703H15.1675C13.7959 7.48703 13.3669 8.30613 13.3669 9.14802V11.1412H16.4305L15.9413 14.215H13.3674V21.6439C18.6493 20.8461 22.6884 16.4483 22.6884 11.1412V11.1412Z" fill="white"/>
</svg>
