<svg width="1100" height="272" viewBox="0 0 1100 272" fill="none" xmlns="http://www.w3.org/2000/svg">
<path d="M1.23535 58.9387V2.48306C1.23535 1.79126 1.79123 1.23535 2.48299 1.23535H234.236C234.927 1.23535 235.483 1.79126 235.483 2.48306V58.9387C235.483 59.6305 234.927 60.1864 234.236 60.1864H155.671C154.979 60.1864 154.424 60.7423 154.424 61.4341V269.505C154.424 270.196 153.868 270.752 153.176 270.752H83.555C82.8632 270.752 82.3074 270.196 82.3074 269.505V61.4465C82.3074 60.7547 81.7515 60.1987 81.0597 60.1987H2.48299C1.79123 60.1987 1.23535 59.6305 1.23535 58.9387Z" stroke="#F4F4F4" stroke-width="2"/>
<path d="M262.857 269.517V2.48306C262.857 1.79126 263.413 1.23535 264.105 1.23535H455.846C456.538 1.23535 457.094 1.79126 457.094 2.48306V58.9387C457.094 59.6305 456.538 60.1864 455.846 60.1864H337.271C336.579 60.1864 336.023 60.7423 336.023 61.4341V105.264C336.023 105.956 336.579 106.512 337.271 106.512H445.841C446.532 106.512 447.088 107.068 447.088 107.76V164.215C447.088 164.907 446.532 165.463 445.841 165.463H337.271C336.579 165.463 336.023 166.019 336.023 166.711V210.541C336.023 211.233 336.579 211.789 337.271 211.789H455.315C456.007 211.789 456.563 212.345 456.563 213.037V269.492C456.563 270.184 456.007 270.74 455.315 270.74H264.105C263.413 270.765 262.857 270.209 262.857 269.517Z" stroke="#F4F4F4" stroke-width="2"/>
<path d="M562.489 270.765H486.185C485.333 270.765 484.727 269.937 484.999 269.122L573.137 2.08775C573.31 1.58125 573.792 1.23535 574.323 1.23535H672.528C673.072 1.23535 673.541 1.58125 673.714 2.08775L761.852 269.122C762.124 269.925 761.519 270.765 760.666 270.765H684.363C683.807 270.765 683.325 270.406 683.164 269.875L624.76 76.3448C624.599 75.8136 624.117 75.4553 623.562 75.4553H623.314C622.759 75.4553 622.277 75.8136 622.116 76.3448L563.699 269.875C563.527 270.406 563.045 270.765 562.489 270.765Z" stroke="#F4F4F4" stroke-width="2"/>
<path d="M789.436 1.23535H878.414C878.92 1.23535 879.378 1.54419 879.575 2.01362L941.574 153.122C941.772 153.591 942.229 153.9 942.735 153.9H944.218C944.724 153.9 945.181 153.591 945.379 153.122L1007.38 2.01362C1007.58 1.54419 1008.03 1.23535 1008.54 1.23535H1097.52C1098.21 1.23535 1098.76 1.79126 1098.76 2.48306V269.517C1098.76 270.209 1098.21 270.765 1097.52 270.765H1028.43C1027.74 270.765 1027.18 270.209 1027.18 269.517V116.197C1027.18 115.505 1026.62 114.95 1025.93 114.95C1025.41 114.95 1024.96 115.271 1024.77 115.74L965.378 267.862C965.193 268.343 964.724 268.652 964.217 268.652H922.761C922.242 268.652 921.785 268.331 921.6 267.849L862.195 114.69C862.009 114.208 861.54 113.887 861.034 113.887C860.342 113.887 859.786 114.443 859.786 115.135V269.505C859.786 270.196 859.23 270.752 858.538 270.752H789.449C788.757 270.752 788.201 270.196 788.201 269.505V2.48306C788.189 1.79126 788.757 1.23535 789.436 1.23535Z" stroke="#F4F4F4" stroke-width="2"/>
</svg>
