<svg width="23" height="22" viewBox="0 0 23 22" fill="none" xmlns="http://www.w3.org/2000/svg">
<path d="M16.1499 2.21859C17.3696 2.22209 18.5384 2.68991 19.4009 3.51987C20.2634 4.34982 20.7495 5.47448 20.7532 6.64821V15.5065C20.7495 16.6802 20.2634 17.8049 19.4009 18.6349C18.5384 19.4648 17.3696 19.9326 16.1499 19.9361H6.9443C5.72456 19.9326 4.55581 19.4648 3.69331 18.6349C2.83082 17.8049 2.34466 16.6802 2.34102 15.5065V6.64821C2.34466 5.47448 2.83082 4.34982 3.69331 3.51987C4.55581 2.68991 5.72456 2.22209 6.9443 2.21859H16.1499V2.21859ZM16.1499 0.447021H6.9443C3.39986 0.447021 0.5 3.23749 0.5 6.64821V15.5065C0.5 18.9172 3.39986 21.7077 6.9443 21.7077H16.1499C19.6943 21.7077 22.5942 18.9172 22.5942 15.5065V6.64821C22.5942 3.23749 19.6943 0.447021 16.1499 0.447021V0.447021Z" fill="white"/>
<path d="M17.5308 6.64831C17.2577 6.64831 16.9907 6.57038 16.7636 6.42437C16.5365 6.27836 16.3595 6.07083 16.255 5.82802C16.1505 5.58522 16.1231 5.31804 16.1764 5.06028C16.2297 4.80252 16.3612 4.56575 16.5543 4.37992C16.7475 4.19408 16.9935 4.06753 17.2614 4.01626C17.5293 3.96498 17.8069 3.9913 18.0592 4.09187C18.3116 4.19244 18.5272 4.36276 18.6789 4.58128C18.8307 4.7998 18.9117 5.05671 18.9117 5.31952C18.9121 5.49412 18.8766 5.66708 18.8073 5.82847C18.7381 5.98985 18.6364 6.13649 18.5081 6.25995C18.3798 6.38342 18.2274 6.48128 18.0597 6.54793C17.892 6.61457 17.7122 6.64868 17.5308 6.64831V6.64831ZM11.5471 7.53385C12.2754 7.53385 12.9874 7.74168 13.593 8.13106C14.1986 8.52044 14.6706 9.07387 14.9493 9.72138C15.228 10.3689 15.301 11.0814 15.1589 11.7688C15.0168 12.4562 14.6661 13.0876 14.151 13.5832C13.636 14.0788 12.9799 14.4162 12.2655 14.553C11.5512 14.6897 10.8108 14.6195 10.1379 14.3513C9.46497 14.0831 8.88984 13.6289 8.4852 13.0462C8.08056 12.4634 7.86458 11.7783 7.86458 11.0775C7.86562 10.1379 8.25394 9.2372 8.94432 8.57286C9.6347 7.90853 10.5708 7.53486 11.5471 7.53385V7.53385ZM11.5471 5.76229C10.4547 5.76229 9.38673 6.07402 8.47839 6.65806C7.57005 7.2421 6.86208 8.07221 6.44402 9.04343C6.02595 10.0147 5.91657 11.0834 6.1297 12.1144C6.34282 13.1454 6.86889 14.0925 7.64137 14.8359C8.41385 15.5792 9.39805 16.0854 10.4695 16.2905C11.541 16.4956 12.6516 16.3903 13.6609 15.988C14.6702 15.5857 15.5328 14.9045 16.1398 14.0304C16.7467 13.1563 17.0707 12.1287 17.0707 11.0775C17.0707 9.66779 16.4887 8.31586 15.4528 7.31907C14.417 6.32228 13.012 5.76229 11.5471 5.76229V5.76229Z" fill="white"/>
</svg>
