<svg width="15" height="15" viewBox="0 0 15 15" fill="none" xmlns="http://www.w3.org/2000/svg">
<path d="M6.54894 1.45659C6.8483 0.53528 8.1517 0.535281 8.45106 1.45659L9.52063 4.74839C9.6545 5.16041 10.0385 5.43937 10.4717 5.43937H13.9329C14.9016 5.43937 15.3044 6.67899 14.5207 7.24839L11.7205 9.28283C11.37 9.53747 11.2234 9.98884 11.3572 10.4009L12.4268 13.6927C12.7261 14.614 11.6717 15.3801 10.888 14.8107L8.08779 12.7763C7.7373 12.5216 7.2627 12.5216 6.91221 12.7763L4.11204 14.8107C3.32833 15.3801 2.27385 14.614 2.5732 13.6927L3.64277 10.4009C3.77665 9.98884 3.62999 9.53747 3.2795 9.28283L0.479333 7.24839C-0.304381 6.67899 0.0983948 5.43937 1.06712 5.43937H4.52832C4.96154 5.43937 5.3455 5.16041 5.47937 4.74839L6.54894 1.45659Z" fill="#FFA722"/>
</svg>
