<svg width="25" height="20" viewBox="0 0 25 20" fill="none" xmlns="http://www.w3.org/2000/svg">
<path d="M24.3607 2.85746C23.4727 3.24302 22.5332 3.49703 21.5718 3.61148C22.5822 3.02028 23.342 2.08105 23.7087 0.969952C22.7535 1.52812 21.7102 1.91975 20.6234 2.12808C20.1658 1.64883 19.6154 1.26757 19.0058 1.00748C18.3961 0.747387 17.7399 0.613896 17.077 0.615121C14.3932 0.615121 12.2212 2.75397 12.2212 5.39056C12.2193 5.7573 12.2614 6.12295 12.3465 6.4797C10.422 6.38954 8.53748 5.89895 6.81357 5.0393C5.08965 4.17966 3.56429 2.9699 2.33506 1.48741C1.90382 2.21389 1.67575 3.04278 1.6747 3.88745C1.6747 5.54333 2.53924 7.00702 3.84467 7.86452C3.07124 7.84618 2.31365 7.64162 1.63623 7.26821V7.32735C1.63623 9.64361 3.31303 11.5705 5.53231 12.0092C5.11498 12.1203 4.68492 12.1767 4.25302 12.1767C3.94655 12.1772 3.64077 12.1475 3.34015 12.088C3.95711 13.9854 5.75276 15.3653 7.87982 15.4047C6.15143 16.7358 4.02942 17.4552 1.84731 17.4499C1.45998 17.4493 1.07301 17.4263 0.688354 17.3809C2.90822 18.7974 5.48864 19.5466 8.12246 19.5395C17.0667 19.5395 21.953 12.2605 21.953 5.94745C21.953 5.74046 21.9476 5.53348 21.9377 5.33142C22.8862 4.65727 23.7067 3.8195 24.3607 2.85746V2.85746Z" fill="white"/>
</svg>
