<svg width="29" height="39" viewBox="0 0 29 39" fill="none" xmlns="http://www.w3.org/2000/svg">
<path d="M22.6946 26.5767V22.5582H28.7392C28.3876 20.0633 27.3662 17.602 25.5746 15.4253C24.3188 13.9685 26.9309 13.4327 26.6797 8.89513C26.0434 -2.8591 3.13775 -2.89259 2.468 8.89513C2.21684 13.4327 4.82889 13.9853 3.57309 15.4253C-3.94492 24.4502 1.93219 38.9337 14.5738 38.9337C22.5607 38.9337 27.8518 33.1403 28.7559 26.5767H22.6946ZM20.8361 10.6198C20.7189 10.9714 20.4677 11.5239 19.7979 11.2393C16.6836 9.96674 12.5478 9.94999 9.36649 11.2393C8.67999 11.5239 8.44557 10.9714 8.32837 10.6198C6.95536 6.484 7.8093 5.71378 14.5738 5.46263C21.3384 5.46263 22.1253 6.66819 20.8361 10.6198ZM14.7915 37.7616C3.67356 37.7616 -2.23704 24.8018 4.71168 16.3294C5.51539 15.3583 5.66608 14.6215 4.99633 13.349C0.241055 4.32404 10.2372 0.288756 15.2938 1.44409C15.7459 1.54455 15.6622 2.19756 15.2101 2.19756C8.16093 2.29803 4.36006 5.44588 6.53677 11.4569C7.22327 13.3323 7.8093 13.4997 9.11533 12.8802C12.6818 11.1556 17.7384 11.1723 17.4873 12.8299C17.3701 13.6002 15.1766 14.002 13.586 14.1862C13.1841 14.2029 12.799 14.2364 12.4139 14.3034C12.1125 14.3202 11.9116 14.3369 11.9116 14.3369V14.3871C7.1228 15.3583 3.52286 19.5777 3.52286 24.6511C3.52286 29.4399 6.72095 33.4585 11.1079 34.7142V34.7477C15.0929 36.5561 16.985 35.2835 17.2696 36.4389C17.504 37.3263 15.8129 37.8119 14.7915 37.7616ZM12.6483 22.5582V26.5767H10.3376V22.5582H12.6483ZM22.1086 32.2529C22.1086 33.4752 21.1207 34.4631 19.8984 34.4631C18.6761 34.4631 17.6715 33.4752 17.6715 32.2529V30.2604C17.6715 31.4827 16.6836 32.4706 15.4613 32.4706C14.239 32.4706 13.2343 31.4827 13.2343 30.2604V18.8578C13.2343 17.6355 14.2222 16.6476 15.4613 16.6476C16.6836 16.6476 17.6715 17.6355 17.6715 18.8578V16.8652C17.6715 15.6429 18.6594 14.6383 19.8984 14.6383C21.1207 14.6383 22.1086 15.6262 22.1086 16.8652V32.2529Z" fill="#172535"/>
<path d="M19.0947 15.6764C18.9105 15.5592 18.2408 15.8606 18.2408 17.6857C18.2408 20.934 18.2408 22.24 18.5924 22.24C18.9942 22.24 19.1114 21.9721 19.0445 17.6857C19.011 15.8606 19.3291 15.8104 19.0947 15.6764Z" fill="#172535"/>
<path d="M14.5571 17.7024C14.3729 17.5852 13.7032 17.8866 13.7032 19.7117C13.7032 22.96 13.7032 24.266 14.0548 24.266C14.4566 24.266 14.5738 23.9981 14.5069 19.7117C14.4734 17.9034 14.7748 17.8364 14.5571 17.7024Z" fill="#172535"/>
</svg>
