<svg width="35" height="19" viewBox="0 0 35 19" fill="none" xmlns="http://www.w3.org/2000/svg">
<path d="M9.56929 0.214844C8.42054 0.214844 7.48679 1.14859 7.48679 2.29734V4.15868C7.48679 3.00993 6.55919 2.08233 5.41044 2.08233C4.26169 2.08233 3.32794 3.00993 3.32794 4.15868V14.8476C3.32794 15.9964 4.26169 16.924 5.41044 16.924C6.55919 16.924 7.48679 15.9902 7.48679 14.8476V16.7089C7.48679 17.8577 8.42054 18.7853 9.56929 18.7853C10.718 18.7853 11.6456 17.8577 11.6456 16.7089V2.29734C11.6518 1.14859 10.718 0.214844 9.56929 0.214844ZM4.51355 4.945C4.57498 8.9687 4.46441 9.21442 4.09583 9.21442C3.77024 9.21442 3.77024 7.98581 3.77024 4.945C3.77024 3.24951 4.39684 2.96079 4.56884 3.06522C4.77771 3.20037 4.48898 3.24951 4.51355 4.945ZM8.78298 3.04065C8.84441 7.06435 8.73998 7.31007 8.36525 7.31007C8.03967 7.31007 8.03967 6.08146 8.03967 3.04065C8.03967 1.34517 8.66626 1.05644 8.83826 1.16087C9.04099 1.28988 8.7584 1.33902 8.78298 3.04065Z" fill="#1D2229"/>
<path d="M12.1985 7.61108V11.3829H22.8014V7.61108H12.1985Z" fill="#1D2229"/>
<path d="M2.78121 7.61108H0.625V11.3829H2.78121V7.61108Z" fill="#1D2229"/>
<path d="M34.3749 7.61108H32.2187V11.3829H34.3749V7.61108Z" fill="#1D2229"/>
<path d="M29.5895 2.07619C28.4408 2.07619 27.5132 3.00379 27.5132 4.15254V2.29734C27.5132 1.14859 26.5794 0.214844 25.4307 0.214844C24.2819 0.214844 23.3543 1.14859 23.3543 2.29734V16.7089C23.3543 17.8577 24.2819 18.7853 25.4307 18.7853C26.5794 18.7853 27.5132 17.8577 27.5132 16.7089V14.8476C27.5132 15.9964 28.4469 16.924 29.5895 16.924C30.7383 16.924 31.6659 15.9902 31.6659 14.8476V4.15254C31.672 3.00379 30.7383 2.07619 29.5895 2.07619ZM24.6013 3.04065C24.6628 7.06435 24.5522 7.31007 24.1836 7.31007C23.858 7.31007 23.858 6.08146 23.858 3.04065C23.858 1.34517 24.4846 1.05644 24.6566 1.16087C24.8655 1.28988 24.5768 1.33902 24.6013 3.04065ZM28.6496 4.945C28.711 8.9687 28.6005 9.21442 28.2319 9.21442C27.9063 9.21442 27.9063 7.98581 27.9063 4.945C27.9063 3.24951 28.5329 2.96079 28.7049 3.06522C28.9076 3.20037 28.625 3.24951 28.6496 4.945Z" fill="#1D2229"/>
</svg>
