<svg width="41" height="29" viewBox="0 0 41 29" fill="none" xmlns="http://www.w3.org/2000/svg">
<path fill-rule="evenodd" clip-rule="evenodd" d="M20.5709 4.47563C15.9982 4.65241 15.4208 6.29056 16.3518 9.09546C16.4225 9.33117 16.5875 9.7083 17.0471 9.50795C19.192 8.63583 21.9734 8.64762 24.0829 9.50795C24.5426 9.69651 24.7076 9.33117 24.7901 9.09546C25.6504 6.4202 25.12 4.47563 20.5709 4.47563ZM16.8821 10.604C19.2863 9.43723 22.7041 9.44902 22.5273 10.5686C22.3976 11.4054 21.2663 10.6393 18.7678 11.5704C15.3736 12.8314 19.4278 12.4543 20.9127 12.7725C21.0306 12.8078 21.007 12.961 20.9127 12.9728C19.3453 13.3028 16.2575 12.9257 15.5268 13.7507C14.3601 15.047 17.8367 14.3517 19.357 14.6817C19.4749 14.717 19.4631 14.8467 19.357 14.882C17.8721 15.2002 14.6901 14.717 14.254 15.707C13.759 16.8384 17.3418 16.2963 18.6853 16.5909C18.8031 16.6263 18.7913 16.7559 18.6853 16.7913C17.0471 17.1448 13.8769 16.4141 13.7119 17.6398C13.5469 18.9244 16.8939 18.1466 18.5439 18.5001C18.6381 18.5119 18.6617 18.6651 18.5439 18.7005C17.0589 19.0187 13.5351 18.3941 13.7355 19.7022C13.8887 20.6097 17.2828 20.1029 18.6971 20.4093C18.7913 20.4211 18.8149 20.5743 18.6971 20.6097C17.3418 20.9043 13.7708 20.3504 14.2776 21.4936C14.7726 22.6132 17.8132 21.965 19.4867 22.3186C19.581 22.3303 19.5927 22.4836 19.4867 22.5189C17.6364 22.9078 14.3954 22.1418 15.515 23.391C16.505 24.4871 19.1567 23.8389 20.9481 24.2278C21.3016 24.2867 21.1366 24.6167 18.3671 24.5931C16.7407 24.5813 17.3418 25.0056 18.2139 25.3592C20.9009 26.573 22.1737 25.7245 22.3741 26.5023C22.5273 27.127 21.3841 27.4569 20.7006 27.4098C13.2051 27.4098 9.22169 18.6769 13.9005 12.961C14.4426 12.3128 14.4661 11.8414 14.089 10.9575C10.8245 3.26174 17.6246 1.02254 21.0306 1.80037C21.337 1.87108 21.278 2.30713 20.9834 2.30713C16.2339 2.37784 13.6765 5.63058 15.1379 9.67294C15.6093 10.9104 16.01 11.0282 16.8821 10.604ZM27.9839 12.3246C27.1353 11.3465 28.9031 9.84972 28.7263 6.78554C28.2903 -1.13417 12.8633 -1.15774 12.4037 6.78554C12.2269 9.84972 13.9947 11.3465 13.1462 12.3246C8.07852 18.4058 12.0502 28.1641 20.5591 28.1641C29.0681 28.1759 33.0633 18.453 27.9839 12.3246Z" fill="#1D2229"/>
<path fill-rule="evenodd" clip-rule="evenodd" d="M12.4744 12.3836C13.2994 11.4289 11.5787 9.96757 11.7437 6.98589C11.7909 6.20806 11.9794 5.51273 12.2859 4.89989C8.70313 2.44855 1.60839 3.60351 1.33733 8.37655C1.1959 10.8043 2.59835 11.9946 1.92659 12.7725C-2.10398 17.6162 1.05448 25.3709 7.81924 25.3709C9.50453 25.3709 10.9659 24.8877 12.1562 24.0863C9.74024 20.7865 9.51632 15.9427 12.4744 12.3836ZM11.1898 10.2033C11.1309 10.3918 11.0013 10.6865 10.6359 10.5333C8.96241 9.84971 6.74677 9.83793 5.03791 10.5333C4.67256 10.6865 4.54292 10.3918 4.484 10.2033C3.74152 7.97585 4.20115 6.66768 7.83102 6.52626C11.4609 6.52626 11.8734 8.07013 11.1898 10.2033Z" fill="#1D2229"/>
<path fill-rule="evenodd" clip-rule="evenodd" d="M28.9738 24.0981C30.1524 24.8995 31.6255 25.3827 33.3108 25.3827C40.0756 25.3827 43.234 17.628 39.2035 12.7843C38.5317 12.0064 39.9342 10.8161 39.7927 8.38834C39.5217 3.6153 32.4269 2.46034 28.8442 4.91168C29.1506 5.5363 29.351 6.21985 29.3863 6.99767C29.5513 9.97935 27.8307 11.4407 28.6556 12.3953C31.6255 15.9427 31.4134 20.7865 28.9738 24.0981ZM33.3108 6.52626C36.9407 6.66769 37.4003 7.97585 36.6578 10.1915C36.5989 10.3801 36.4693 10.6747 36.1039 10.5215C34.3951 9.82614 32.1794 9.83793 30.5059 10.5215C30.1406 10.6747 30.0109 10.3801 29.952 10.1915C29.2685 8.07014 29.681 6.52626 33.3108 6.52626Z" fill="#1D2229"/>
</svg>
