<svg width="27" height="31" viewBox="0 0 27 31" fill="none" xmlns="http://www.w3.org/2000/svg">
<path d="M7.21357 16.2045C6.30573 16.2045 5.55957 16.9382 5.55957 17.8585V19.3384C5.55957 18.4305 4.82584 17.6968 3.918 17.6968C3.01017 17.6968 2.26401 18.4305 2.26401 19.3384V27.8073C2.26401 28.7152 2.99773 29.4489 3.918 29.4489C4.82584 29.4489 5.55957 28.7152 5.55957 27.8073V29.2872C5.55957 30.1951 6.2933 30.9288 7.21357 30.9288C8.1214 30.9288 8.85513 30.1951 8.85513 29.2872V17.8585C8.86757 16.9382 8.1214 16.2045 7.21357 16.2045ZM2.87337 23.3428C2.61222 23.3428 2.61222 22.3728 2.61222 19.9602C2.61222 18.6171 3.10966 18.3808 3.24646 18.4679C3.40813 18.5673 3.18428 18.6046 3.20915 19.9602C3.25889 23.1438 3.17184 23.3428 2.87337 23.3428ZM6.25599 21.8256C5.99483 21.8256 5.99483 20.8556 5.99483 18.443C5.99483 17.0999 6.49227 16.8636 6.62907 16.9507C6.79074 17.0501 6.56689 17.0874 6.59176 18.443C6.64151 21.6266 6.55445 21.8256 6.25599 21.8256Z" fill="#172535"/>
<path d="M9.30283 22.0743V25.059H17.6972V22.0743H9.30283Z" fill="#172535"/>
<path d="M1.82874 22.0743H0.125V25.059H1.82874V22.0743Z" fill="#172535"/>
<path d="M26.875 22.0743H25.1713V25.059H26.875V22.0743Z" fill="#172535"/>
<path d="M23.082 17.6844C22.1742 17.6844 21.4404 18.4181 21.4404 19.3259V17.8585C21.4404 16.9507 20.7067 16.2045 19.7864 16.2045C18.8786 16.2045 18.1449 16.9382 18.1449 17.8585V29.2748C18.1449 30.1826 18.8786 30.9164 19.7864 30.9164C20.6943 30.9164 21.4404 30.1826 21.4404 29.2748V27.7949C21.4404 28.7027 22.1742 29.4365 23.082 29.4365C23.9898 29.4365 24.736 28.7027 24.736 27.7949V19.3259C24.736 18.4181 23.9898 17.6844 23.082 17.6844ZM18.7916 21.8256C18.5304 21.8256 18.5304 20.8556 18.5304 18.443C18.5304 17.0999 19.0278 16.8636 19.1646 16.9507C19.3263 17.0501 19.1025 17.0874 19.1273 18.443C19.1771 21.6266 19.09 21.8256 18.7916 21.8256ZM22.0001 23.3428C21.7389 23.3428 21.7389 22.3728 21.7389 19.9602C21.7389 18.6171 22.2363 18.3808 22.3731 18.4679C22.5348 18.5673 22.311 18.6046 22.3358 19.9602C22.3856 23.1438 22.2985 23.3428 22.0001 23.3428Z" fill="#172535"/>
<path d="M4.06724 17.075C4.27865 15.3588 4.92533 13.6551 6.16893 12.1503C6.76587 11.429 6.87779 10.8818 6.38035 9.9367C2.8485 3.23365 10.2728 0.236559 14.0285 1.09465C14.3643 1.16927 14.3021 1.65427 13.9664 1.65427C8.71833 1.72889 5.90778 4.06687 7.52447 8.53142C8.03435 9.92426 8.46961 10.0486 9.43962 9.58849C12.0885 8.30757 15.8442 8.32001 15.6577 9.55118C15.5706 10.1232 13.9415 10.4217 12.7601 10.5585C12.4616 10.5709 12.1756 10.5958 11.8895 10.6456C11.6657 10.658 11.5164 10.6704 11.5164 10.6704V10.7077C8.60641 11.2674 6.31817 13.4934 5.572 16.3413C5.98239 15.8936 6.55445 15.5827 7.21357 15.5827C8.46961 15.5827 9.47693 16.6024 9.47693 17.8585V21.4525H17.5106V17.8585C17.5106 16.6024 18.5304 15.5827 19.774 15.5827C20.8435 15.5827 21.7513 16.3288 21.9876 17.3362C22.311 17.1621 22.684 17.0626 23.0696 17.0626C23.4302 17.0626 23.7536 17.1496 24.0645 17.2989C23.8779 15.2593 23.1193 13.2447 21.6643 11.4788C20.7316 10.3968 22.6716 9.99888 22.4851 6.6287C22.0125 -2.10142 4.99994 -2.1263 4.5025 6.6287C4.31596 9.99888 6.25599 10.4093 5.32328 11.4788C3.86826 13.2323 3.10966 15.2593 2.92312 17.2989C3.22158 17.1496 3.55736 17.0626 3.918 17.0626C3.96775 17.0626 4.01749 17.075 4.06724 17.075ZM18.1449 7.90962C18.0578 8.17078 17.8713 8.58117 17.3738 8.36975C15.0483 7.42461 11.989 7.41218 9.62617 8.36975C9.11629 8.58117 8.94218 8.17078 8.85513 7.90962C7.82293 4.83791 8.45717 4.26585 13.4938 4.07931C18.518 4.07931 19.1025 4.97471 18.1449 7.90962Z" fill="#172535"/>
</svg>
